<svg width="1573" height="1936" viewBox="0 0 1573 1936" fill="none" xmlns="http://www.w3.org/2000/svg">
<path d="M100.027 1262.73V1483H189.695V1534.19H30.9015V1262.73H100.027Z" fill="#0336FF"/>
<path d="M207.485 1262.73H275.004L274.468 1412.01C274.349 1430.68 275.956 1445.25 279.291 1455.71C282.744 1466.06 287.805 1473.31 294.473 1477.47C301.142 1481.51 309.835 1483.54 320.552 1483.54C331.15 1483.54 339.783 1481.4 346.452 1477.12C353.12 1472.83 358.122 1465.46 361.456 1455C364.79 1444.53 366.457 1430.21 366.457 1412.01V1262.73H433.618V1421.47C433.618 1458.8 424.449 1487.4 406.111 1507.26C387.892 1527.12 359.67 1537.04 321.445 1537.04C281.196 1537.04 251.962 1526.88 233.742 1506.54C215.642 1486.21 206.652 1457.5 206.771 1420.4L207.485 1262.73Z" fill="#0336FF"/>
<path d="M497.314 1262.73C505.293 1262.73 517.498 1262.25 533.931 1261.3C551.079 1260.35 564.356 1259.87 573.764 1259.87C608.059 1259.87 634.078 1267.36 651.821 1282.35C669.683 1297.21 678.614 1321.64 678.614 1355.65C678.614 1377.05 674.327 1395.25 665.753 1410.23C657.179 1425.21 644.557 1436.57 627.886 1444.3C611.214 1452.03 590.852 1455.89 566.798 1455.89C555.961 1455.89 546.733 1455.77 539.111 1455.53V1534.19H470.879V1262.73H497.314ZM566.798 1407.2C580.611 1407.2 591.566 1403.04 599.664 1394.71C607.88 1386.39 611.988 1373.25 611.988 1355.29C611.988 1340.43 608.237 1328.72 600.735 1320.16C593.352 1311.6 582.278 1307.32 567.512 1307.32C556.318 1307.32 546.852 1307.97 539.111 1309.28V1405.77C549.114 1406.72 558.343 1407.2 566.798 1407.2Z" fill="#0336FF"/>
<path d="M847.338 1483.54H752.491L738.201 1534.19H666.932L761.601 1260.94H839.122L934.505 1534.19H862.342L847.338 1483.54ZM833.227 1436.09L808.042 1351.01L799.111 1315.88L790.001 1351.01L765.888 1436.09H833.227Z" fill="#0336FF"/>
<path d="M1071.54 1262.73C1074.4 1262.73 1083.21 1262.37 1097.98 1261.66C1118.22 1260.47 1134.24 1259.87 1146.03 1259.87C1191.16 1259.87 1224.68 1271.17 1246.59 1293.76C1268.5 1316.35 1279.46 1348.99 1279.46 1391.68C1279.46 1422.24 1274.04 1448.4 1263.2 1470.16C1252.48 1491.92 1236.89 1508.51 1216.4 1519.92C1195.92 1531.34 1171.33 1537.04 1142.63 1537.04C1130.96 1537.04 1117.51 1536.51 1102.26 1535.44C1099.65 1535.32 1094.94 1535.08 1088.15 1534.73C1081.37 1534.37 1075.47 1534.19 1070.47 1534.19H1046.54V1262.73H1071.54ZM1146.03 1486.93C1165.68 1486.81 1181.04 1479.37 1192.11 1464.63C1203.19 1449.89 1208.72 1427.59 1208.72 1397.74C1208.72 1376.1 1206.34 1358.8 1201.58 1345.84C1196.93 1332.76 1189.79 1323.37 1180.14 1317.66C1170.62 1311.83 1158.29 1308.92 1143.17 1308.92C1138.88 1308.92 1134 1309.16 1128.52 1309.63C1123.04 1310.11 1118.52 1310.65 1114.95 1311.24V1484.25C1121.14 1486.03 1131.5 1486.93 1146.03 1486.93Z" fill="#0336FF"/>
<path d="M1292.96 1397.03C1293.79 1351.01 1305.82 1316.95 1329.04 1294.83C1352.26 1272.71 1383.88 1261.06 1423.89 1259.87C1449.37 1259.16 1471.34 1264.39 1489.8 1275.57C1508.38 1286.63 1522.49 1302.68 1532.13 1323.73C1541.78 1344.77 1546.36 1369.56 1545.89 1398.1C1545.29 1429.85 1539.52 1456.07 1528.56 1476.76C1517.6 1497.45 1502.48 1512.67 1483.19 1522.42C1463.9 1532.17 1441.21 1537.04 1415.14 1537.04C1389.41 1537.04 1367.27 1531.34 1348.69 1519.92C1330.11 1508.39 1316.06 1492.1 1306.53 1471.05C1297.01 1450 1292.48 1425.33 1292.96 1397.03ZM1475.87 1396.14C1475.87 1369.86 1471.4 1349.11 1462.47 1333.89C1453.54 1318.55 1440.26 1310.88 1422.64 1310.88C1404.54 1310.88 1390.07 1317.78 1379.23 1331.57C1368.4 1345.37 1362.98 1367.84 1362.98 1398.99C1362.98 1416.47 1365.06 1431.87 1369.23 1445.19C1373.52 1458.39 1379.89 1468.73 1388.34 1476.22C1396.92 1483.6 1407.4 1487.28 1419.78 1487.28C1437.88 1487.28 1451.75 1480.03 1461.4 1465.52C1471.04 1450.9 1475.87 1427.77 1475.87 1396.14Z" fill="#0336FF"/>
<path d="M68.8047 1573.72C78.3787 1573.72 93.0256 1573.14 112.745 1572C133.322 1570.86 149.255 1570.29 160.544 1570.29C201.698 1570.29 232.921 1579.28 254.212 1597.26C275.647 1615.1 286.364 1644.42 286.364 1685.23C286.364 1710.91 281.22 1732.74 270.931 1750.72C260.643 1768.7 245.496 1782.33 225.49 1791.6C205.485 1800.88 181.05 1805.51 152.185 1805.51C139.181 1805.51 128.107 1805.37 118.961 1805.09V1899.47H37.0817V1573.72H68.8047ZM152.185 1747.08C168.76 1747.08 181.907 1742.09 191.624 1732.1C201.484 1722.11 206.414 1706.34 206.414 1684.8C206.414 1666.96 201.912 1652.91 192.91 1642.63C184.05 1632.36 170.761 1627.22 153.042 1627.22C139.61 1627.22 128.249 1628.01 118.961 1629.58V1745.37C130.964 1746.51 142.039 1747.08 152.185 1747.08Z" fill="#0336FF"/>
<path d="M318.301 1734.88C319.302 1679.66 333.734 1638.78 361.599 1612.24C389.464 1585.7 427.402 1571.72 475.415 1570.29C505.995 1569.43 532.36 1575.71 554.508 1589.13C576.8 1602.4 593.733 1621.66 605.308 1646.91C616.883 1672.17 622.384 1701.92 621.812 1736.17C621.098 1774.26 614.168 1805.73 601.021 1830.56C587.875 1855.38 569.727 1873.65 546.578 1885.35C523.429 1897.05 496.207 1902.9 464.913 1902.9C434.047 1902.9 407.468 1896.05 385.177 1882.35C362.885 1868.51 346.023 1848.96 334.591 1823.71C323.16 1798.45 317.73 1768.84 318.301 1734.88ZM537.79 1733.81C537.79 1702.28 532.431 1677.38 521.714 1659.11C510.997 1640.71 495.064 1631.5 473.915 1631.5C452.195 1631.5 434.833 1639.78 421.829 1656.33C408.826 1672.88 402.324 1699.85 402.324 1737.24C402.324 1758.21 404.825 1776.69 409.826 1792.67C414.97 1808.51 422.615 1820.92 432.761 1829.91C443.05 1838.76 455.624 1843.18 470.486 1843.18C492.206 1843.18 508.853 1834.48 520.428 1817.07C532.002 1799.52 537.79 1771.77 537.79 1733.81Z" fill="#0336FF"/>
<path d="M709.265 1573.72C712.694 1573.72 723.269 1573.29 740.988 1572.43C765.28 1571 784.5 1570.29 798.646 1570.29C852.804 1570.29 893.029 1583.85 919.322 1610.96C945.615 1638.07 958.761 1677.24 958.761 1728.46C958.761 1765.13 952.26 1796.52 939.256 1822.64C926.396 1848.75 907.676 1868.65 883.098 1882.35C858.52 1896.05 829.012 1902.9 794.574 1902.9C780.57 1902.9 764.423 1902.26 746.132 1900.97C742.988 1900.83 737.344 1900.54 729.199 1900.12C721.054 1899.69 713.981 1899.47 707.979 1899.47H679.257V1573.72H709.265ZM798.646 1842.76C822.224 1842.61 840.658 1833.69 853.947 1816C867.237 1798.31 873.881 1771.55 873.881 1735.74C873.881 1709.77 871.023 1689.01 865.307 1673.45C859.734 1657.76 851.161 1646.49 839.586 1639.64C828.154 1632.65 813.365 1629.15 795.217 1629.15C790.073 1629.15 784.214 1629.44 777.641 1630.01C771.067 1630.58 765.637 1631.22 761.351 1631.93V1839.54C768.781 1841.68 781.213 1842.76 798.646 1842.76Z" fill="#0336FF"/>
<path d="M1220.26 1573.72V1634.5H1094.87V1703.42H1191.54V1762.71H1094.87V1837.19H1233.12V1899.47H1014.06V1573.72H1220.26Z" fill="#0336FF"/>
<path d="M1556.14 1899.47H1466.11C1464.4 1897.33 1462.83 1894.98 1461.4 1892.41C1460.11 1889.7 1457.75 1884.35 1454.33 1876.36C1450.32 1867.23 1445.97 1855.53 1441.25 1841.26C1436.82 1828.27 1433.03 1818.07 1429.89 1810.65C1426.75 1803.23 1422.96 1796.95 1418.53 1791.82C1414.1 1786.68 1408.96 1783.9 1403.1 1783.47C1394.95 1784.04 1383.16 1784.32 1367.73 1784.32V1899.47H1286.28V1573.72H1314.36C1319.5 1573.72 1330.22 1573.29 1346.51 1572.43C1348.8 1572.29 1356.37 1571.93 1369.23 1571.36C1382.09 1570.65 1396.52 1570.29 1412.53 1570.29C1433.96 1570.29 1453.75 1573.43 1471.9 1579.71C1490.05 1585.99 1504.91 1596.83 1516.48 1612.24C1528.2 1627.51 1534.06 1647.99 1534.06 1673.67C1534.06 1720.04 1516.84 1751.29 1482.4 1767.42C1489.83 1773.27 1496.27 1781.11 1501.7 1790.96C1507.27 1800.8 1513.91 1814.5 1521.63 1832.05C1526.06 1842.33 1529.77 1850.75 1532.78 1857.31C1535.92 1863.73 1539.21 1869.94 1542.63 1875.93L1556.14 1899.47ZM1367.73 1727.82C1371.87 1728.39 1378.16 1728.82 1386.59 1729.1C1395.17 1729.39 1402.24 1729.46 1407.81 1729.32C1423.67 1729.32 1435.61 1724.32 1443.61 1714.34C1451.61 1704.2 1455.61 1691.15 1455.61 1675.17C1455.61 1643.63 1437.89 1627.87 1402.45 1627.87C1388.59 1627.87 1377.02 1629.15 1367.73 1631.72V1727.82Z" fill="#0336FF"/>
<path d="M280.464 310.497C241.465 387.303 219.488 474.183 219.488 566.189C219.488 878.886 473.348 1132.38 786.5 1132.38C850.669 1132.38 912.348 1121.73 969.863 1102.12L783.259 887.844C606.839 886.108 464.361 742.763 464.361 566.189C464.361 552.133 465.264 538.288 467.014 524.709L280.464 310.497Z" fill="#0336FF"/>
<path d="M512.34 576.754C517.278 706.793 612.983 813.622 738.01 835.886L512.34 576.754Z" fill="#0336FF"/>
<path d="M1060.72 575.18L815.627 293.752C953.459 308.276 1060.86 424.708 1060.86 566.189C1060.86 569.198 1060.81 572.195 1060.72 575.18Z" fill="#0336FF"/>
<path d="M1103.41 624.208C1106.85 605.389 1108.64 585.998 1108.64 566.189C1108.64 388.535 964.412 244.517 786.5 244.517C781.975 244.517 777.472 244.611 772.992 244.795L590.167 34.8611C651.342 12.3137 717.481 0 786.5 0C1099.65 0 1353.51 253.491 1353.51 566.189C1353.51 663.092 1329.13 754.309 1286.16 834.058L1103.41 624.208Z" fill="#0336FF"/>
<path d="M303.689 927.962L257.429 977.708C223.06 1014.67 225.204 1072.45 262.216 1106.77C299.228 1141.09 357.093 1138.95 391.462 1101.99L434.414 1055.8C384.626 1020.04 340.515 976.888 303.689 927.962Z" fill="#0336FF"/>
<path d="M590.172 34.8604C545.065 51.4852 502.657 73.6736 463.782 100.592L1203.43 949.916C1235.62 915.059 1263.49 876.156 1286.17 834.057L590.172 34.8604Z" fill="#37C280"/>
<path d="M1098.17 1039.25L360.645 192.36C329.207 228.041 302.197 267.705 280.469 310.497L969.868 1102.12C1015.54 1086.54 1058.59 1065.3 1098.17 1039.25Z" fill="#37C280"/>
<path d="M590.172 34.8599C545.065 51.4847 502.657 73.6731 463.782 100.591L1203.43 949.915C1235.62 915.058 1263.49 876.155 1286.17 834.056L590.172 34.8599Z" fill="#37C280"/>
<path d="M1098.17 1039.25L360.645 192.36C329.207 228.041 302.197 267.705 280.469 310.496L969.868 1102.12C1015.54 1086.54 1058.59 1065.3 1098.17 1039.25Z" fill="#37C280"/>
</svg>
