<svg width="429" height="169" viewBox="0 0 429 169" fill="none" xmlns="http://www.w3.org/2000/svg">
<path d="M212.283 37.4341V70.2024H225.622V77.8173H202V37.4341H212.283Z" fill="#0336FF"/>
<path d="M228.269 37.4341H238.313L238.233 59.6422C238.215 62.4193 238.454 64.5862 238.95 66.1428C239.464 67.6817 240.217 68.7607 241.209 69.3798C242.201 69.9812 243.494 70.282 245.088 70.282C246.665 70.282 247.949 69.9636 248.941 69.3268C249.933 68.69 250.677 67.5933 251.173 66.0367C251.669 64.4801 251.917 62.3486 251.917 59.6422V37.4341H261.908V61.0485C261.908 66.6027 260.544 70.8568 257.816 73.8108C255.106 76.7649 250.908 78.2419 245.221 78.2419C239.234 78.2419 234.885 76.7295 232.175 73.7047C229.482 70.68 228.145 66.4081 228.162 60.8893L228.269 37.4341Z" fill="#0336FF"/>
<path d="M271.384 37.4341C272.571 37.4341 274.386 37.3633 276.831 37.2218C279.382 37.0803 281.357 37.0096 282.756 37.0096C287.858 37.0096 291.729 38.1239 294.368 40.3527C297.025 42.5638 298.354 46.1988 298.354 51.2578C298.354 54.4417 297.716 57.1481 296.441 59.3769C295.165 61.6057 293.288 63.2949 290.808 64.4447C288.328 65.5945 285.298 66.1693 281.72 66.1693C280.108 66.1693 278.735 66.1517 277.601 66.1163V77.8173H267.451V37.4341H271.384ZM281.72 58.9258C283.775 58.9258 285.405 58.3067 286.609 57.0685C287.832 55.8303 288.443 53.8757 288.443 51.2047C288.443 48.9936 287.885 47.2513 286.769 45.9777C285.67 44.7041 284.023 44.0673 281.826 44.0673C280.161 44.0673 278.753 44.1646 277.601 44.3592V58.7136C279.089 58.8551 280.462 58.9258 281.72 58.9258Z" fill="#0336FF"/>
<path d="M323.453 70.282H309.344L307.218 77.8173H296.616L310.699 37.1688H322.231L336.42 77.8173H325.685L323.453 70.282ZM321.354 63.2242L317.608 50.5679L316.279 45.3409L314.924 50.5679L311.337 63.2242H321.354Z" fill="#0336FF"/>
<path d="M356.806 37.4341C357.231 37.4341 358.542 37.381 360.739 37.2749C363.75 37.098 366.133 37.0096 367.886 37.0096C374.6 37.0096 379.587 38.69 382.846 42.0508C386.106 45.4117 387.735 50.2672 387.735 56.6175C387.735 61.1634 386.929 65.055 385.317 68.292C383.723 71.529 381.402 73.9966 378.356 75.6947C375.309 77.3928 371.651 78.2419 367.382 78.2419C365.646 78.2419 363.644 78.1623 361.376 78.0031C360.987 77.9854 360.287 77.95 359.277 77.8969C358.267 77.8439 357.391 77.8173 356.647 77.8173H353.086V37.4341H356.806ZM367.886 70.7861C370.809 70.7684 373.094 69.6629 374.742 67.4695C376.389 65.2761 377.213 61.9594 377.213 57.5196C377.213 54.3002 376.859 51.7265 376.15 49.7985C375.459 47.8527 374.396 46.4553 372.962 45.6063C371.544 44.7395 369.711 44.3061 367.461 44.3061C366.824 44.3061 366.097 44.3415 365.282 44.4123C364.468 44.483 363.794 44.5626 363.263 44.6511V70.3881C364.184 70.6534 365.725 70.7861 367.886 70.7861Z" fill="#0336FF"/>
<path d="M389.744 57.4134C389.868 50.5679 391.657 45.5001 395.112 42.21C398.566 38.9199 403.269 37.1864 409.221 37.0096C413.012 36.9034 416.28 37.6817 419.026 39.3445C421.79 40.9895 423.889 43.3775 425.324 46.5084C426.758 49.6393 427.44 53.3274 427.37 57.5726C427.281 62.2955 426.422 66.1959 424.792 69.2737C423.162 72.3515 420.913 74.6157 418.043 76.0662C415.173 77.5166 411.799 78.2419 407.919 78.2419C404.093 78.2419 400.798 77.3928 398.035 75.6947C395.271 73.9789 393.181 71.5555 391.764 68.4246C390.346 65.2938 389.673 61.6234 389.744 57.4134ZM416.953 57.2808C416.953 53.3716 416.289 50.2849 414.961 48.0208C413.632 45.7389 411.657 44.598 409.035 44.598C406.343 44.598 404.19 45.6239 402.578 47.6758C400.966 49.7277 400.16 53.0709 400.16 57.7053C400.16 60.3055 400.47 62.5962 401.09 64.5774C401.728 66.5408 402.676 68.0797 403.933 69.1941C405.209 70.2908 406.768 70.8391 408.61 70.8391C411.303 70.8391 413.366 69.7601 414.801 67.6021C416.236 65.4264 416.953 61.986 416.953 57.2808Z" fill="#0336FF"/>
<path d="M207.638 83.6971C209.063 83.6971 211.242 83.6121 214.175 83.4423C217.236 83.2725 219.606 83.1876 221.286 83.1876C227.408 83.1876 232.052 84.5249 235.22 87.1994C238.408 89.8527 240.003 94.2147 240.003 100.285C240.003 104.106 239.237 107.354 237.707 110.028C236.176 112.703 233.923 114.73 230.947 116.11C227.971 117.49 224.336 118.179 220.042 118.179C218.108 118.179 216.46 118.158 215.1 118.116V132.157H202.919V83.6971H207.638ZM220.042 109.487C222.508 109.487 224.464 108.744 225.909 107.258C227.376 105.773 228.109 103.427 228.109 100.222C228.109 97.5685 227.44 95.4777 226.1 93.9494C224.782 92.4211 222.806 91.657 220.17 91.657C218.171 91.657 216.482 91.7737 215.1 92.0072V109.232C216.885 109.402 218.533 109.487 220.042 109.487Z" fill="#0336FF"/>
<path d="M244.754 107.672C244.902 99.4577 247.049 93.3763 251.195 89.4282C255.34 85.4801 260.984 83.3999 268.126 83.1876C272.675 83.0603 276.597 83.9942 279.892 85.9895C283.208 87.9636 285.727 90.8291 287.449 94.5862C289.171 98.3433 289.989 102.769 289.904 107.863C289.798 113.531 288.767 118.211 286.811 121.905C284.856 125.598 282.156 128.315 278.712 130.056C275.268 131.796 271.219 132.666 266.564 132.666C261.972 132.666 258.018 131.648 254.702 129.61C251.386 127.551 248.878 124.643 247.177 120.886C245.476 117.129 244.669 112.724 244.754 107.672ZM277.405 107.513C277.405 102.822 276.608 99.118 275.013 96.4011C273.419 93.6629 271.049 92.2938 267.903 92.2938C264.672 92.2938 262.089 93.5249 260.155 95.9871C258.22 98.4494 257.253 102.461 257.253 108.023C257.253 111.143 257.625 113.892 258.369 116.269C259.134 118.625 260.271 120.472 261.781 121.809C263.311 123.125 265.182 123.783 267.393 123.783C270.624 123.783 273.1 122.488 274.822 119.899C276.544 117.288 277.405 113.159 277.405 107.513Z" fill="#0336FF"/>
<path d="M302.914 83.6971C303.424 83.6971 304.997 83.6334 307.633 83.506C311.246 83.2937 314.106 83.1876 316.21 83.1876C324.266 83.1876 330.25 85.2041 334.162 89.2371C338.073 93.2702 340.029 99.0968 340.029 106.717C340.029 112.172 339.062 116.842 337.127 120.727C335.214 124.611 332.429 127.572 328.773 129.61C325.117 131.648 320.727 132.666 315.604 132.666C313.521 132.666 311.119 132.571 308.398 132.38C307.93 132.359 307.091 132.316 305.879 132.252C304.667 132.189 303.615 132.157 302.722 132.157H298.45V83.6971H302.914ZM316.21 123.719C319.717 123.698 322.46 122.372 324.437 119.74C326.413 117.107 327.402 113.127 327.402 107.8C327.402 103.936 326.977 100.848 326.127 98.5343C325.297 96.1994 324.022 94.5225 322.3 93.5037C320.6 92.4636 318.399 91.9435 315.7 91.9435C314.935 91.9435 314.063 91.986 313.085 92.0709C312.107 92.1558 311.3 92.2513 310.662 92.3574V123.242C311.767 123.56 313.617 123.719 316.21 123.719Z" fill="#0336FF"/>
<path d="M378.93 83.6971V92.7395H360.276V102.992H374.657V111.811H360.276V122.892H380.843V132.157H348.255V83.6971H378.93Z" fill="#0336FF"/>
<path d="M428.895 132.157H415.503C415.248 131.839 415.014 131.488 414.801 131.106C414.61 130.703 414.259 129.907 413.749 128.718C413.154 127.36 412.505 125.619 411.804 123.497C411.145 121.565 410.582 120.047 410.114 118.944C409.646 117.84 409.083 116.906 408.424 116.142C407.765 115.377 407 114.964 406.128 114.9C404.917 114.985 403.163 115.027 400.867 115.027V132.157H388.75V83.6971H392.927C393.693 83.6971 395.287 83.6334 397.71 83.506C398.05 83.4848 399.177 83.4317 401.09 83.3468C403.003 83.2407 405.15 83.1876 407.531 83.1876C410.72 83.1876 413.664 83.6546 416.364 84.5886C419.063 85.5225 421.274 87.1357 422.996 89.4282C424.739 91.6994 425.611 94.7454 425.611 98.5662C425.611 105.465 423.049 110.113 417.926 112.512C419.031 113.382 419.988 114.55 420.796 116.014C421.625 117.479 422.613 119.517 423.761 122.127C424.42 123.656 424.973 124.908 425.419 125.885C425.887 126.84 426.376 127.763 426.886 128.655L428.895 132.157ZM400.867 106.622C401.484 106.706 402.419 106.77 403.673 106.813C404.948 106.855 406.001 106.866 406.83 106.844C409.189 106.844 410.964 106.102 412.155 104.616C413.345 103.109 413.94 101.166 413.94 98.789C413.94 94.098 411.304 91.7525 406.033 91.7525C403.971 91.7525 402.249 91.9435 400.867 92.3256V106.622Z" fill="#0336FF"/>
<path d="M9.72194 46.1897C3.92051 57.6153 0.651154 70.5396 0.651154 84.2264C0.651154 130.743 38.4154 168.453 85 168.453C94.5458 168.453 103.721 166.869 112.277 163.951L84.5179 132.076C58.2736 131.818 37.0785 110.494 37.0785 84.2264C37.0785 82.1355 37.2128 80.076 37.4733 78.0558L9.72194 46.1897Z" fill="#0336FF"/>
<path d="M44.2158 85.7982C44.9504 105.143 59.1875 121.035 77.7866 124.347L44.2158 85.7982Z" fill="#0336FF"/>
<path d="M125.792 85.564L89.333 43.6987C109.837 45.8592 125.814 63.1797 125.814 84.2264C125.814 84.674 125.807 85.1199 125.792 85.564Z" fill="#0336FF"/>
<path d="M132.144 92.8574C132.655 90.0578 132.921 87.1732 132.921 84.2264C132.921 57.7985 111.466 36.3745 85 36.3745C84.3269 36.3745 83.657 36.3883 82.9906 36.4158L55.7934 5.18595C64.8939 1.8318 74.7327 0 85 0C131.585 0 169.349 37.7095 169.349 84.2264C169.349 98.6417 165.722 112.211 159.33 124.075L132.144 92.8574Z" fill="#0336FF"/>
<path d="M13.1769 138.044L6.29524 145.444C1.18257 150.942 1.50139 159.538 7.00734 164.643C12.5133 169.748 21.1214 169.43 26.234 163.932L32.6235 157.061C25.2171 151.741 18.6551 145.322 13.1769 138.044Z" fill="#0336FF"/>
<path d="M55.7942 5.18579C49.0841 7.65891 42.7755 10.9597 36.9925 14.964L147.023 141.31C151.812 136.124 155.957 130.337 159.331 124.075L55.7942 5.18579Z" fill="#37C280"/>
<path d="M131.365 154.599L21.6497 28.6156C16.9731 33.9235 12.9549 39.8239 9.72272 46.1895L112.278 163.951C119.072 161.634 125.476 158.475 131.365 154.599Z" fill="#37C280"/>
<path d="M55.7941 5.18579C49.0841 7.65891 42.7754 10.9597 36.9924 14.964L147.023 141.31C151.812 136.124 155.957 130.337 159.331 124.075L55.7941 5.18579Z" fill="#37C280"/>
<path d="M131.365 154.599L21.6496 28.6156C16.973 33.9235 12.9549 39.8239 9.72266 46.1895L112.278 163.951C119.072 161.634 125.476 158.475 131.365 154.599Z" fill="#37C280"/>
</svg>
