<svg width="2456" height="1036" viewBox="0 0 2456 1036" fill="none" xmlns="http://www.w3.org/2000/svg">
<path d="M111.31 4.70078V359.558H255.696V442.023H0V4.70078H111.31Z" fill="white"/>
<path d="M284.343 4.70078H393.064L392.201 245.199C392.009 275.274 394.598 298.739 399.966 315.596C405.527 332.262 413.676 343.946 424.414 350.651C435.152 357.164 449.15 360.42 466.407 360.42C483.473 360.42 497.374 356.972 508.112 350.076C518.85 343.18 526.903 331.304 532.272 314.447C537.641 297.59 540.326 274.507 540.326 245.199V4.70078H648.471V260.428C648.471 320.577 633.707 366.646 604.178 398.636C574.84 430.626 529.396 446.62 467.845 446.62C403.034 446.62 355.96 430.242 326.623 397.486C297.477 364.73 283 318.469 283.192 258.704L284.343 4.70078Z" fill="white"/>
<path d="M751.037 4.70078C763.884 4.70078 783.539 3.93456 810 2.40211C837.611 0.869664 858.991 0.10344 874.139 0.10344C929.363 0.10344 971.259 12.1715 999.83 36.3075C1028.59 60.252 1042.97 99.6168 1042.97 154.402C1042.97 188.882 1036.07 218.19 1022.26 242.326C1008.46 266.462 988.133 284.756 961.289 297.207C934.444 309.658 901.655 315.884 862.922 315.884C845.473 315.884 830.613 315.692 818.341 315.309V442.023H708.469V4.70078H751.037ZM862.922 237.441C885.165 237.441 902.806 230.737 915.844 217.328C929.075 203.919 935.69 182.752 935.69 153.827C935.69 129.883 929.65 111.014 917.57 97.2223C905.682 83.4303 887.849 76.5343 864.073 76.5343C846.048 76.5343 830.804 77.5878 818.341 79.695V235.143C834.448 236.675 849.308 237.441 862.922 237.441Z" fill="white"/>
<path d="M1314.66 360.42H1161.93L1138.92 442.023H1024.16L1176.6 1.82744H1301.43L1455.02 442.023H1338.82L1314.66 360.42ZM1291.94 283.989L1251.38 146.931L1237 90.3263L1222.33 146.931L1183.51 283.989H1291.94Z" fill="white"/>
<path d="M1675.68 4.70078C1680.28 4.70078 1694.47 4.12612 1718.25 2.97678C1750.85 1.06122 1776.64 0.10344 1795.62 0.10344C1868.29 0.10344 1922.27 18.3013 1957.55 54.6969C1992.83 91.0925 2010.47 143.675 2010.47 212.443C2010.47 261.673 2001.75 303.815 1984.3 338.87C1967.04 373.925 1941.92 400.647 1908.94 419.036C1875.96 437.426 1836.37 446.62 1790.16 446.62C1771.37 446.62 1749.7 445.758 1725.15 444.034C1720.94 443.843 1713.36 443.46 1702.43 442.885C1691.5 442.31 1682.01 442.023 1673.96 442.023H1635.42V4.70078H1675.68ZM1795.62 365.88C1827.26 365.688 1851.99 353.716 1869.83 329.963C1887.66 306.21 1896.58 270.293 1896.58 222.213C1896.58 187.349 1892.74 159.478 1885.07 138.598C1877.59 117.527 1866.09 102.394 1850.56 93.1997C1835.22 83.8134 1815.37 79.1203 1791.02 79.1203C1784.12 79.1203 1776.25 79.5034 1767.43 80.2696C1758.61 81.0359 1751.33 81.8979 1745.57 82.8556V361.57C1755.55 364.443 1772.23 365.88 1795.62 365.88Z" fill="white"/>
<path d="M2032.22 221.063C2033.56 146.931 2052.93 92.0503 2090.32 56.4209C2127.71 20.7915 2178.62 2.019 2243.05 0.10344C2284.08 -1.0459 2319.46 7.38257 2349.18 25.3888C2379.09 43.2035 2401.81 69.0636 2417.34 102.969C2432.88 136.874 2440.26 176.814 2439.49 222.787C2438.53 273.933 2429.23 316.171 2411.59 349.502C2393.95 382.832 2369.6 407.351 2338.54 423.059C2307.47 438.767 2270.94 446.62 2228.95 446.62C2187.53 446.62 2151.87 437.426 2121.96 419.036C2092.04 400.455 2069.42 374.212 2054.08 340.307C2038.74 306.401 2031.45 266.654 2032.22 221.063ZM2326.74 219.627C2326.74 177.293 2319.55 143.866 2305.17 119.347C2290.79 94.6363 2269.41 82.281 2241.03 82.281C2211.89 82.281 2188.59 93.3912 2171.14 115.612C2153.69 137.832 2144.97 174.036 2144.97 224.224C2144.97 252.383 2148.32 277.189 2155.03 298.643C2161.94 319.906 2172.19 336.572 2185.81 348.64C2199.61 360.516 2216.49 366.454 2236.43 366.454C2265.58 366.454 2287.91 354.769 2303.45 331.4C2318.98 307.838 2326.74 270.581 2326.74 219.627Z" fill="white"/>
<path d="M61.0333 505.696C76.4498 505.696 100.035 504.777 131.788 502.938C164.922 501.099 190.578 500.18 208.756 500.18C275.024 500.18 325.3 514.661 359.584 543.624C394.099 572.358 411.356 619.596 411.356 685.338C411.356 726.714 403.073 761.883 386.506 790.847C369.939 819.81 345.548 841.762 313.335 856.704C281.121 871.645 241.775 879.116 195.295 879.116C174.356 879.116 156.524 878.886 141.797 878.426V1030.48H9.9517V505.696H61.0333ZM195.295 784.985C221.986 784.985 243.155 776.94 258.802 760.849C274.679 744.758 282.617 719.358 282.617 684.648C282.617 655.915 275.369 633.273 260.873 616.722C246.607 600.172 225.208 591.897 196.676 591.897C175.046 591.897 156.754 593.161 141.797 595.689V782.227C161.126 784.066 178.958 784.985 195.295 784.985Z" fill="white"/>
<path d="M462.783 765.331C464.394 676.373 487.634 610.516 532.502 567.76C577.371 525.005 638.462 502.478 715.775 500.18C765.016 498.8 807.469 508.914 843.134 530.522C879.029 551.9 906.295 582.932 924.933 623.618C943.571 664.305 952.43 712.232 951.509 767.4C950.359 828.775 939.199 879.46 918.03 919.457C896.861 959.454 867.639 988.877 830.363 1007.73C793.088 1026.58 749.254 1036 698.863 1036C649.162 1036 606.364 1024.97 570.469 1002.9C534.573 980.602 507.422 949.11 489.014 908.424C470.606 867.737 461.863 820.04 462.783 765.331ZM816.212 763.607C816.212 712.807 807.584 672.695 790.326 643.272C773.069 613.619 747.413 598.793 713.359 598.793C678.384 598.793 650.427 612.125 629.488 638.789C608.55 665.454 598.08 708.899 598.08 769.124C598.08 802.915 602.107 832.682 610.16 858.428C618.444 883.943 630.754 903.941 647.091 918.423C663.658 932.675 683.906 939.801 707.837 939.801C742.811 939.801 769.618 925.779 788.256 897.735C806.893 869.461 816.212 824.752 816.212 763.607Z" fill="white"/>
<path d="M1092.33 505.696C1097.85 505.696 1114.88 505.007 1143.41 503.628C1182.53 501.329 1213.48 500.18 1236.25 500.18C1323.46 500.18 1388.23 522.017 1430.57 565.692C1472.91 609.366 1494.08 672.465 1494.08 754.987C1494.08 814.063 1483.61 864.634 1462.67 906.7C1441.96 948.765 1411.82 980.832 1372.24 1002.9C1332.67 1024.97 1285.15 1036 1229.7 1036C1207.15 1036 1181.15 1034.97 1151.69 1032.9C1146.63 1032.67 1137.54 1032.21 1124.43 1031.52C1111.31 1030.83 1099.92 1030.48 1090.26 1030.48H1044.01V505.696H1092.33ZM1236.25 939.111C1274.22 938.881 1303.9 924.514 1325.3 896.011C1346.7 867.507 1357.4 824.407 1357.4 766.711C1357.4 724.875 1352.8 691.429 1343.6 666.374C1334.62 641.088 1320.82 622.929 1302.18 611.895C1283.77 600.632 1259.95 595 1230.73 595C1222.45 595 1213.01 595.459 1202.43 596.379C1191.85 597.298 1183.1 598.333 1176.2 599.482V933.939C1188.16 937.387 1208.18 939.111 1236.25 939.111Z" fill="white"/>
<path d="M1915.16 505.696V603.62H1713.25V714.646H1868.91V810.155H1713.25V930.146H1935.87V1030.48H1583.13V505.696H1915.16Z" fill="white"/>
<path d="M2456 1030.48H2311.04C2308.28 1027.04 2305.75 1023.24 2303.45 1019.1C2301.37 1014.74 2297.58 1006.12 2292.06 993.245C2285.61 978.533 2278.6 959.684 2271 936.697C2263.87 915.779 2257.77 899.344 2252.71 887.391C2247.65 875.438 2241.55 865.324 2234.42 857.048C2227.28 848.773 2219 844.291 2209.57 843.601C2196.45 844.521 2177.47 844.98 2152.62 844.98V1030.48H2021.46V505.696H2066.68C2074.96 505.696 2092.22 505.007 2118.45 503.628C2122.13 503.398 2134.32 502.823 2155.03 501.904C2175.74 500.754 2198.98 500.18 2224.75 500.18C2259.27 500.18 2291.14 505.237 2320.36 515.351C2349.58 525.465 2373.51 542.935 2392.15 567.76C2411.02 592.356 2420.45 625.342 2420.45 666.718C2420.45 741.425 2392.72 791.766 2337.27 817.741C2349.23 827.166 2359.59 839.808 2368.33 855.669C2377.31 871.53 2388.01 893.597 2400.43 921.871C2407.56 938.421 2413.55 951.984 2418.38 962.557C2423.44 972.901 2428.73 982.901 2434.26 992.555L2456 1030.48ZM2152.62 753.953C2159.29 754.872 2169.41 755.562 2182.99 756.022C2196.8 756.481 2208.19 756.596 2217.16 756.367C2242.7 756.367 2261.91 748.321 2274.8 732.23C2287.68 715.91 2294.13 694.877 2294.13 669.132C2294.13 618.331 2265.59 592.931 2208.53 592.931C2186.21 592.931 2167.57 595 2152.62 599.137V753.953Z" fill="white"/>
</svg>
