<svg width="1135" height="1133" viewBox="0 0 1135 1133" fill="none" xmlns="http://www.w3.org/2000/svg">
<path d="M60.9758 310.497C21.9773 387.303 0 474.183 0 566.189C0 878.886 253.86 1132.38 567.012 1132.38C631.18 1132.38 692.86 1121.73 750.375 1102.12L563.771 887.844C387.351 886.108 244.873 742.763 244.873 566.189C244.873 552.133 245.776 538.288 247.526 524.709L60.9758 310.497Z" fill="white"/>
<path d="M292.851 576.754C297.79 706.793 393.495 813.622 518.521 835.886L292.851 576.754Z" fill="white"/>
<path d="M841.227 575.18L596.139 293.752C733.971 308.276 841.372 424.708 841.372 566.189C841.372 569.198 841.323 572.195 841.227 575.18Z" fill="white"/>
<path d="M883.924 624.208C887.357 605.389 889.15 585.998 889.15 566.189C889.15 388.535 744.924 244.517 567.012 244.517C562.487 244.517 557.983 244.611 553.504 244.795L370.678 34.8611C431.854 12.3137 497.993 0 567.012 0C880.163 0 1134.02 253.491 1134.02 566.189C1134.02 663.092 1109.64 754.309 1066.68 834.058L883.924 624.208Z" fill="white"/>
<path d="M84.2006 927.962L37.9408 977.708C3.5723 1014.67 5.71547 1072.45 42.7277 1106.77C79.7399 1141.09 137.605 1138.95 171.974 1101.99L214.925 1055.8C165.138 1020.04 121.027 976.888 84.2006 927.962Z" fill="white"/>
<path d="M370.684 34.8604C325.577 51.4852 283.169 73.6736 244.294 100.592L983.946 949.916C1016.14 915.059 1044 876.156 1066.68 834.057L370.684 34.8604Z" fill="white"/>
<path d="M878.686 1039.25L141.157 192.36C109.719 228.041 82.7085 267.705 60.981 310.497L750.38 1102.12C796.054 1086.54 839.102 1065.3 878.686 1039.25Z" fill="white"/>
<path d="M370.684 34.8599C325.577 51.4847 283.169 73.6731 244.294 100.591L983.946 949.915C1016.14 915.058 1044 876.155 1066.68 834.056L370.684 34.8599Z" fill="white"/>
<path d="M878.686 1039.25L141.157 192.36C109.719 228.041 82.7085 267.705 60.981 310.496L750.38 1102.12C796.054 1086.54 839.102 1065.3 878.686 1039.25Z" fill="white"/>
</svg>
